<?xml version="1.0" encoding="utf-8"?>
<!-- Generator: Adobe Illustrator 27.4.1, SVG Export Plug-In . SVG Version: 6.00 Build 0)  -->
<svg version="1.1" id="Layer_1" xmlns="http://www.w3.org/2000/svg" xmlns:xlink="http://www.w3.org/1999/xlink" x="0px" y="0px"
	 viewBox="0 0 67.5 75" style="enable-background:new 0 0 67.5 75;" xml:space="preserve">
<style type="text/css">
	.st0{fill:#000000;}
</style>
<g>
	<g>
		<path class="st0" d="M62.7,29.3l-48.6-28C7.9-2.4,0,2.2,0,9.5v56.1c0,7.3,7.9,11.8,14.2,8.2l48.6-28C69.1,42.1,69.1,33,62.7,29.3z
			 M46.1,43.8c0,2.6-2.1,4.7-4.7,4.7H19L8.7,56.6V43.8v-2.5V28c0-2.6,2.1-4.7,4.7-4.7h28c2.6,0,4.7,2.1,4.7,4.7L46.1,43.8L46.1,43.8
			z"/>
		<path class="st0" d="M18.4,33.4c-1.6,0-2.9,1.3-2.9,2.9c0,1.6,1.3,2.9,2.9,2.9c1.6,0,2.9-1.3,2.9-2.9S20,33.4,18.4,33.4z"/>
		<path class="st0" d="M27.4,33.4c-1.6,0-2.9,1.3-2.9,2.9c0,1.6,1.3,2.9,2.9,2.9c1.6,0,2.9-1.3,2.9-2.9S29,33.4,27.4,33.4z"/>
		<path class="st0" d="M36.3,33.4c-1.6,0-2.9,1.3-2.9,2.9c0,1.6,1.3,2.9,2.9,2.9c1.6,0,2.9-1.3,2.9-2.9S38,33.4,36.3,33.4z"/>
	</g>
</g>
</svg>
