<?xml version="1.0" standalone="no"?>
<!DOCTYPE svg PUBLIC "-//W3C//DTD SVG 20010904//EN"
 "http://www.w3.org/TR/2001/REC-SVG-20010904/DTD/svg10.dtd">
<svg version="1.0" xmlns="http://www.w3.org/2000/svg"
 width="512.000000pt" height="512.000000pt" viewBox="0 0 512.000000 512.000000"
 preserveAspectRatio="xMidYMid meet">

<g transform="translate(0.000000,512.000000) scale(0.100000,-0.100000)"
fill="#000000" stroke="none">
<path d="M2061 5104 c-110 -30 -212 -106 -269 -203 -15 -25 -52 -120 -83 -211
l-56 -165 -494 -5 c-314 -4 -505 -10 -524 -17 -123 -44 -231 -134 -277 -233
-41 -87 -50 -155 -46 -372 l3 -197 28 -29 c17 -17 48 -35 72 -41 31 -8 661
-11 2160 -11 2101 0 2116 0 2155 20 71 36 80 69 80 284 0 102 -5 209 -11 238
-33 152 -140 276 -287 332 -55 20 -77 21 -551 26 l-494 5 -53 157 c-63 190
-90 242 -164 312 -64 61 -114 90 -197 111 -82 22 -911 21 -992 -1z m943 -298
c48 -20 71 -55 107 -164 17 -53 34 -103 37 -109 3 -10 -119 -13 -588 -13 -469
0 -591 3 -588 13 3 6 20 56 37 109 36 107 59 144 105 164 46 20 842 20 890 0z"/>
<path d="M650 3280 c0 -12 54 -673 120 -1471 131 -1584 122 -1508 197 -1617
61 -90 147 -148 260 -177 49 -13 233 -15 1330 -15 904 0 1287 3 1325 11 150
32 271 139 325 286 21 59 34 191 143 1513 66 797 120 1458 120 1470 l0 20
-1910 0 -1910 0 0 -20z m1080 -302 c86 -44 80 50 80 -1178 0 -1228 6 -1134
-80 -1178 -56 -28 -84 -28 -140 1 -86 43 -80 -51 -80 1177 0 1013 1 1087 18
1120 19 38 88 80 132 80 14 0 46 -10 70 -22z m900 0 c86 -44 80 50 80 -1178 0
-1228 6 -1134 -80 -1178 -56 -28 -84 -28 -140 1 -86 43 -80 -51 -80 1177 0
1013 1 1087 18 1120 19 38 88 80 132 80 14 0 46 -10 70 -22z m900 2 c26 -13
47 -34 60 -60 20 -39 20 -57 20 -1122 0 -1225 6 -1132 -80 -1176 -56 -28 -84
-28 -140 0 -86 44 -80 -49 -80 1176 0 1065 0 1083 20 1122 37 73 124 99 200
60z"/>
</g>
</svg>
