<?xml version="1.0" standalone="no"?>
<!DOCTYPE svg PUBLIC "-//W3C//DTD SVG 20010904//EN"
 "http://www.w3.org/TR/2001/REC-SVG-20010904/DTD/svg10.dtd">
<svg version="1.0" xmlns="http://www.w3.org/2000/svg"
 width="512.000000pt" height="512.000000pt" viewBox="0 0 512.000000 512.000000"
 preserveAspectRatio="xMidYMid meet">

<g transform="translate(0.000000,512.000000) scale(0.100000,-0.100000)"
fill="#000000" stroke="none">
<path d="M2890 5106 c-110 -31 -215 -114 -276 -220 -20 -32 -104 -240 -189
-461 -84 -221 -165 -429 -179 -462 -102 -243 -367 -542 -748 -846 l-128 -102
0 -1371 0 -1371 135 -42 c310 -97 658 -169 1000 -207 227 -26 1718 -33 1820
-9 171 39 318 172 383 345 39 103 31 270 -19 378 -28 63 -29 67 -12 79 107 71
177 143 221 228 74 146 69 352 -12 492 l-24 42 53 42 c147 117 223 308 196
490 -20 135 -121 296 -223 357 l-27 15 29 56 c61 121 77 261 45 386 -43 164
-190 314 -365 371 -50 16 -112 18 -656 22 l-601 3 24 117 c31 154 88 498 105
637 7 62 13 212 13 345 -1 211 -3 244 -23 325 -30 118 -61 183 -113 240 -98
106 -289 160 -429 121z"/>
<path d="M80 2848 c-18 -13 -43 -36 -54 -51 l-21 -28 0 -1164 0 -1164 21 -28
c12 -15 36 -37 55 -48 33 -19 52 -20 509 -20 l475 0 3 1263 2 1262 -478 0
-479 0 -33 -22z"/>
</g>
</svg>
