<?xml version="1.0" standalone="no"?>
<!DOCTYPE svg PUBLIC "-//W3C//DTD SVG 20010904//EN"
 "http://www.w3.org/TR/2001/REC-SVG-20010904/DTD/svg10.dtd">
<svg version="1.0" xmlns="http://www.w3.org/2000/svg"
 width="512.000000pt" height="512.000000pt" viewBox="0 0 512.000000 512.000000"
 preserveAspectRatio="xMidYMid meet">

<g transform="translate(0.000000,512.000000) scale(0.100000,-0.100000)"
fill="#000000" stroke="none">
<path d="M4080 4678 c-71 -49 -75 -61 -78 -249 l-3 -169 -147 0 c-81 0 -163
-5 -184 -10 -49 -14 -104 -76 -113 -129 -9 -53 25 -126 74 -158 32 -22 44 -23
202 -23 l168 0 3 -174 c3 -191 6 -202 72 -250 39 -29 133 -29 172 0 66 48 69
59 72 250 l3 174 168 0 c158 0 170 1 202 23 49 32 83 105 74 158 -9 53 -64
115 -113 129 -21 5 -103 10 -184 10 l-147 0 -3 169 c-3 154 -5 172 -24 198
-35 48 -82 73 -134 73 -32 0 -57 -7 -80 -22z"/>
<path d="M2139 4571 c-288 -40 -534 -232 -643 -504 -14 -36 -29 -79 -32 -96
l-6 -29 -227 -5 c-189 -4 -239 -8 -306 -26 -257 -69 -452 -241 -549 -485 -58
-143 -57 -127 -53 -1287 3 -1197 -3 -1099 82 -1274 106 -220 303 -374 547
-430 59 -13 257 -15 1635 -13 l1568 3 95 33 c216 75 377 218 471 417 79 169
74 78 74 1300 l0 1090 -23 78 c-22 76 -71 182 -111 242 -22 32 -20 33 -40 -50
-20 -84 -61 -157 -127 -223 -214 -215 -568 -177 -734 79 -32 49 -58 120 -74
200 -5 23 -13 28 -63 38 -125 24 -245 105 -312 210 -106 165 -100 387 15 537
l33 43 -47 30 c-68 44 -148 78 -238 103 -74 20 -104 22 -479 24 -220 1 -425
-1 -456 -5z m641 -1297 c143 -30 274 -83 400 -165 97 -63 266 -238 328 -338
308 -503 189 -1138 -281 -1492 -103 -78 -257 -152 -382 -185 -135 -35 -348
-44 -479 -19 -237 44 -426 144 -597 314 -425 423 -438 1109 -30 1543 129 137
244 217 401 281 208 83 427 104 640 61z"/>
<path d="M2455 2970 c-191 -30 -352 -114 -482 -254 -337 -360 -263 -940 155
-1210 133 -86 268 -126 432 -126 312 0 581 167 715 445 56 114 74 185 81 310
12 222 -62 426 -214 587 -147 155 -328 239 -547 252 -44 3 -107 1 -140 -4z"/>
</g>
</svg>
